<?xml version="1.0" encoding="UTF-8" standalone="no" ?>
<!DOCTYPE svg PUBLIC "-//W3C//DTD SVG 1.1//EN" "http://www.w3.org/Graphics/SVG/1.1/DTD/svg11.dtd">
<svg xmlns="http://www.w3.org/2000/svg" xmlns:xlink="http://www.w3.org/1999/xlink" version="1.1" width="1080" height="1080" viewBox="0 0 1080 1080" xml:space="preserve">
<desc>Created with Fabric.js 5.2.4</desc>
<defs>
</defs>
<g transform="matrix(1 0 0 1 540 540)" id="f3a1e701-7c53-4a09-bcd2-62f5226ed129"  >
<rect style="stroke: none; stroke-width: 1; stroke-dasharray: none; stroke-linecap: butt; stroke-dashoffset: 0; stroke-linejoin: miter; stroke-miterlimit: 4; fill: rgb(255,255,255); fill-rule: nonzero; opacity: 1; visibility: hidden;" vector-effect="non-scaling-stroke"  x="-540" y="-540" rx="0" ry="0" width="1080" height="1080" />
</g>
<g transform="matrix(1 0 0 1 540 540)" id="491c990e-5afd-46d3-a936-b4d95933c6e8"  >
</g>
<g transform="matrix(47.65 0 0 47.65 540 540)"  >
<path style="stroke: none; stroke-width: 1; stroke-dasharray: none; stroke-linecap: butt; stroke-dashoffset: 0; stroke-linejoin: miter; stroke-miterlimit: 4; fill: rgb(0,191,165); fill-rule: evenodd; opacity: 1;"  transform=" translate(-16, -16)" d="M 23.208 22.209 L 13.447999999999999 25.021 C 13.149 25.107 12.863999999999999 24.856 12.925999999999998 24.563000000000002 L 16.412999999999997 8.293000000000003 C 16.477999999999998 7.9890000000000025 16.909999999999997 7.9410000000000025 17.045999999999996 8.223000000000003 L 23.501999999999995 21.579 C 23.559691693109706 21.700470457998925 23.56016896787691 21.84134886381346 23.503301636761744 21.963207430488815 C 23.44643430564658 22.08506599716417 23.33815523418643 22.175191441405943 23.207999999999995 22.209 z M 24.881999999999998 21.546 L 17.407 6.08 C 17.21281963522263 5.688187522033009 16.82087662436568 5.433022277428191 16.384 5.414 C 15.946261278383506 5.383557450116365 15.52704801299797 5.595467452399164 15.292 5.965999999999999 L 7.185 18.759 C 6.933403358018343 19.15155514498173 6.938903797906989 19.656024060483258 7.199 20.043 L 11.161999999999999 26.025 C 11.398 26.381999999999998 11.806999999999999 26.587999999999997 12.232 26.587999999999997 C 12.354418991202548 26.58846108038878 12.476289464932407 26.571628142028302 12.594 26.537999999999997 L 24.098 23.222999999999995 C 24.45 23.120999999999995 24.738 22.877999999999997 24.889 22.555999999999994 C 25.038999999999998 22.233999999999995 25.037 21.865999999999993 24.881999999999998 21.545999999999992 z" stroke-linecap="round" />
</g>
</svg>