<svg width="100" height="100" viewBox="0 0 100 100" fill="none" xmlns="http://www.w3.org/2000/svg">
<path fill-rule="evenodd" clip-rule="evenodd" d="M48.7401 3.76943C47.8117 4.50953 45.2981 8.42111 35.1294 24.9545C32.829 28.6938 27.8978 36.7067 24.1713 42.7609C14.9271 57.7785 13.9955 59.4736 14 61.2718C14.0039 63.0006 28.0433 85.5247 31.2187 88.8956C32.3088 90.0527 33.8005 91 34.5332 91C35.2659 91 42.0268 89.1294 49.5571 86.843C57.088 84.5567 67.8851 81.347 73.5509 79.7108C88.8098 75.3032 88.6199 75.862 80.6125 58.9485C75.8726 48.9361 68.4002 32.9505 61.3934 17.8319C58.2386 11.026 55.1314 5.22373 54.1979 4.39622C52.3913 2.79429 50.2679 2.55083 48.7401 3.76943ZM60.519 27.8683C64.0286 35.347 68.2946 44.5253 70.0001 48.2647C71.7057 52.004 74.7227 58.413 76.7057 62.5065C78.6887 66.6001 80.3112 70.4683 80.3112 71.1022C80.3112 72.5837 80.27 72.5986 57.8832 79.1481C44.0729 83.1885 38.8044 84.4809 38.2829 83.9564C37.509 83.1781 37.7305 81.8818 42.7859 57.6535C44.3465 50.1748 46.9167 37.7913 48.4986 30.1345C50.0799 22.4778 51.5356 15.6868 51.7333 15.0431C52.6089 12.1896 54.3646 14.7518 60.519 27.8683Z" fill="black"/>
</svg>
